HIERARCHY
ROOT root
{
	OFFSET 0.000000 0.000000 0.000000
	CHANNELS 6 Xposition Yposition Zposition Zrotation Yrotation Xrotation
	JOINT lhip
	{
		OFFSET 0.058581 -0.082280 -0.017664
		CHANNELS 3 Zrotation Yrotation Xrotation
		JOINT lknee
		{
			OFFSET 0.043451 -0.386469 0.008037
			CHANNELS 3 Zrotation Yrotation Xrotation
			JOINT lankle
			{
				OFFSET -0.014790 -0.426874 -0.037428
				CHANNELS 3 Zrotation Yrotation Xrotation
				JOINT ltoe
				{
					OFFSET 0.041054 -0.060286 0.122042
					CHANNELS 3 Zrotation Yrotation Xrotation
					End Site
					{
						OFFSET 0.000000 0.000000 0.000000
					}
				}
			}
		}
	}
	JOINT rhip
	{
		OFFSET -0.060310 -0.090513 -0.013543
		CHANNELS 3 Zrotation Yrotation Xrotation
		JOINT rknee
		{
			OFFSET -0.043257 -0.383688 -0.004843
			CHANNELS 3 Zrotation Yrotation Xrotation
			JOINT rankle
			{
				OFFSET 0.019056 -0.420046 -0.034562
				CHANNELS 3 Zrotation Yrotation Xrotation
				JOINT rtoe
				{
					OFFSET -0.034840 -0.062106 0.130323
					CHANNELS 3 Zrotation Yrotation Xrotation
					End Site
					{
						OFFSET 0.000000 0.000000 0.000000
					}
				}
			}
		}
	}
	JOINT lowerback
	{
		OFFSET 0.004439 0.124404 -0.038385
		CHANNELS 3 Zrotation Yrotation Xrotation
		JOINT upperback
		{
			OFFSET 0.004488 0.137956 0.026820
			CHANNELS 3 Zrotation Yrotation Xrotation
			JOINT chest
			{
				OFFSET -0.002265 0.056032 0.002855
				CHANNELS 3 Zrotation Yrotation Xrotation
				JOINT lowerneck
				{
					OFFSET -0.013390 0.211636 -0.033468
					CHANNELS 3 Zrotation Yrotation Xrotation
					JOINT upperneck
					{
						OFFSET 0.010113 0.088937 0.050410
						CHANNELS 3 Zrotation Yrotation Xrotation
						End Site
						{
							OFFSET 0.000000 0.000000 0.000000
						}
					}
				}
				JOINT lclavicle
				{
					OFFSET 0.071702 0.114000 -0.018898
					CHANNELS 3 Zrotation Yrotation Xrotation
					JOINT lshoulder
					{
						OFFSET 0.122921 0.045205 -0.019046
						CHANNELS 3 Zrotation Yrotation Xrotation
						JOINT lelbow
						{
							OFFSET 0.255332 -0.015649 -0.022946
							CHANNELS 3 Zrotation Yrotation Xrotation
							JOINT lwrist
							{
								OFFSET 0.265709 0.012698 -0.007375
								CHANNELS 3 Zrotation Yrotation Xrotation
								End Site
								{
									OFFSET 0.000000 0.000000 0.000000
								}
							}
						}
					}
				}
				JOINT rclavicle
				{
					OFFSET -0.082954 0.112472 -0.023707
					CHANNELS 3 Zrotation Yrotation Xrotation
					JOINT rshoulder
					{
						OFFSET -0.113228 0.046853 -0.008472
						CHANNELS 3 Zrotation Yrotation Xrotation
						JOINT relbow
						{
							OFFSET -0.260127 -0.014369 -0.031269
							CHANNELS 3 Zrotation Yrotation Xrotation
							JOINT rwrist
							{
								OFFSET -0.269108 0.006794 -0.006027
								CHANNELS 3 Zrotation Yrotation Xrotation
								End Site
								{
									OFFSET 0.000000 0.000000 0.000000
								}
							}
						}
					}
				}
			}
		}
	}
}
MOTION
Frames: 18
Frame Time: 0.033333
0.515721 0.243910 0.986479 91.451784 3.512563 96.457805 7.517044 4.024907 -3.169709 3.505995 -4.332072 -8.677850 -2.794929 9.326459 -2.744590 0.000000 -0.000000 0.000000 -1.421547 -1.930970 -6.299939 -1.051550 2.405532 -0.433607 5.267876 -5.990756 -3.631492 0.000000 -0.000000 0.000000 -0.564460 1.169479 -3.394199 3.770060 -3.419179 2.976879 0.268851 1.306636 -8.096820 0.053781 -8.456000 7.014971 5.798265 -10.185346 -4.710030 -23.147865 2.172622 -2.836915 -61.965954 -3.501104 25.120370 5.665086 -6.368769 9.956746 -6.736235 -8.667835 11.082419 24.191086 3.428969 0.148431 54.223883 5.526669 17.445390 -2.603676 4.587164 1.718469 4.912539 2.212501 1.295330 
0.515620 0.243924 0.986412 91.452200 3.514798 96.392351 7.520087 4.030207 -3.103133 3.513392 -4.339818 -8.684670 -2.792336 9.318514 -2.743510 0.000000 -0.000000 0.000000 -1.420563 -2.003551 -6.234113 -1.056826 2.428332 -0.440474 5.341437 -5.980954 -3.626791 0.000000 -0.000000 0.000000 -0.567899 1.169153 -3.256906 3.743853 -3.421741 2.748283 0.302812 1.309240 -7.944681 0.077436 -8.467747 7.020770 5.783639 -10.160768 -4.720177 -23.123113 2.139801 -2.820609 -61.982123 -3.500733 25.064658 5.664064 -6.397743 10.072689 -6.689431 -8.666905 10.976741 24.198140 3.456366 0.158912 54.226854 5.510655 17.411426 -2.625519 4.603112 1.731486 4.886021 2.223183 1.283019 
0.515142 0.243947 0.986397 91.347954 3.582263 96.335263 7.551136 4.063392 -3.059708 3.567155 -4.360403 -8.689411 -2.814876 9.381805 -2.749069 0.000000 -0.000000 0.000000 -1.343693 -1.934077 -6.288663 -1.094660 2.431146 -0.338993 5.597987 -6.057372 -3.525778 0.000000 -0.000000 0.000000 -0.526102 1.138891 -2.984935 3.723329 -3.379450 2.296252 0.359227 1.403789 -7.742719 0.088313 -8.553407 7.211954 5.800378 -10.061660 -4.893147 -23.007516 2.102533 -2.804723 -62.055093 -3.429298 25.056676 5.568060 -6.592350 10.292088 -6.605724 -8.627843 10.723222 24.178160 3.609312 0.162752 54.125786 5.505089 17.394524 -2.418401 4.434289 1.823725 4.961268 2.295155 1.259999 
0.515886 0.243331 0.986106 91.807453 3.579256 96.678559 7.629651 3.933889 -3.513526 3.478235 -4.500497 -8.647282 -2.979455 9.262843 -2.831588 0.000000 -0.000000 0.000000 -1.101352 -1.967568 -6.342197 -1.291542 2.329194 -0.728199 5.380894 -6.171517 -3.650052 0.000000 -0.000000 0.000000 -0.838455 0.750524 -4.011479 3.800469 -3.577998 2.942690 0.467866 1.347221 -7.650689 0.425717 -8.404320 7.287380 5.813364 -10.209419 -5.128448 -22.858000 2.268519 -2.761850 -62.050858 -3.536356 24.972346 5.393745 -6.880760 10.437695 -6.572491 -8.544910 10.674465 24.335174 3.818804 0.493112 53.791393 6.081375 17.375939 -1.792788 3.965074 1.954755 5.271951 2.449306 1.186748 
0.515862 0.243401 0.985984 91.826706 3.571027 96.663886 7.602880 3.932675 -3.500011 3.499295 -4.525367 -8.667664 -2.973835 9.267666 -2.821197 0.000000 -0.000000 0.000000 -1.095840 -1.958908 -6.314644 -1.310321 2.329888 -0.761272 5.360058 -6.186953 -3.640642 0.000000 -0.000000 0.000000 -0.848190 0.740215 -3.951539 3.791227 -3.589832 2.884189 0.476716 1.359440 -7.644811 0.405827 -8.427454 7.260955 5.828835 -10.194935 -5.093308 -22.857711 2.226904 -2.750107 -62.085180 -3.541987 24.993532 5.434179 -6.834321 10.443086 -6.535719 -8.447248 10.669282 24.327156 3.853096 0.517539 53.811029 6.071661 17.380684 -1.802724 3.970463 1.913712 5.257419 2.426719 1.128138 
0.515694 0.243537 0.985861 91.849740 3.537255 96.647390 7.546171 3.904447 -3.502346 3.523841 -4.561591 -8.660998 -2.945303 9.268621 -2.867349 0.000000 -0.000000 0.000000 -1.129308 -1.956796 -6.294482 -1.325719 2.315939 -0.788558 5.365900 -6.231574 -3.641093 0.000000 -0.000000 0.000000 -0.887479 0.734292 -3.838918 3.762712 -3.604056 2.728424 0.499177 1.361018 -7.627500 0.395723 -8.451668 7.188956 5.854454 -10.163051 -4.957839 -22.819111 2.203809 -2.693360 -62.152279 -3.546104 25.007599 5.449277 -6.838724 10.518920 -6.626745 -8.462916 10.564407 24.327411 3.909404 0.576558 53.835987 6.049923 17.418509 -1.807093 3.939584 1.925424 5.272867 2.407496 1.024139 
0.515446 0.243614 0.985909 91.842821 3.544009 96.644567 7.559959 3.903451 -3.511370 3.510323 -4.564499 -8.653623 -2.920382 9.227266 -2.860607 0.000000 -0.000000 0.000000 -1.133208 -1.965288 -6.304803 -1.306979 2.325216 -0.802402 5.400473 -6.240560 -3.589477 0.000000 -0.000000 0.000000 -0.918920 0.744682 -3.865742 3.793994 -3.619623 2.756708 0.526685 1.343217 -7.582783 0.467653 -8.358346 7.203664 5.839058 -10.131106 -5.121341 -22.796188 2.224876 -2.753886 -62.249935 -3.504098 25.012083 5.564393 -7.231540 10.541958 -7.146980 -7.880651 10.789372 24.325168 3.941337 0.595118 53.788039 6.068532 17.408517 -1.863076 4.007770 1.914454 5.640009 2.196515 1.171279 
0.515147 0.243705 0.985934 91.841731 3.530863 96.666542 7.525850 3.898708 -3.564134 3.518365 -4.543845 -8.629550 -2.906919 9.220539 -2.847618 0.000000 -0.000000 0.000000 -1.149900 -1.949134 -6.340157 -1.301959 2.333385 -0.810098 5.379576 -6.260050 -3.602774 0.000000 -0.000000 0.000000 -0.923129 0.771656 -3.817759 3.784993 -3.613882 2.676170 0.516315 1.323382 -7.588057 0.461177 -8.382352 7.176197 5.879974 -10.144406 -5.174278 -22.799357 2.224693 -2.756569 -62.247888 -3.471619 25.014666 5.556961 -7.242256 10.460621 -7.224487 -7.841872 10.791682 24.359657 3.958963 0.627198 53.754537 6.049983 17.407439 -1.872883 4.005699 1.863552 5.669969 2.197755 1.189659 
0.514961 0.243756 0.985940 91.836079 3.507023 96.669464 7.491392 3.885779 -3.569582 3.522693 -4.509356 -8.649090 -2.925115 9.223597 -2.812853 0.000000 -0.000000 0.000000 -1.183599 -1.949676 -6.351372 -1.295162 2.304143 -0.824836 5.410175 -6.230423 -3.579478 0.000000 -0.000000 0.000000 -0.922572 0.777432 -3.769461 3.748162 -3.598036 2.580455 0.502674 1.318466 -7.568093 0.458622 -8.328233 7.167225 5.913512 -10.127154 -5.137341 -22.754644 2.245566 -2.747035 -62.260573 -3.447241 25.007326 5.541484 -7.149498 10.478765 -7.128371 -8.030021 10.728386 24.352403 3.936868 0.666884 53.780787 6.060601 17.403851 -1.879485 3.961631 1.863248 5.608083 2.264749 1.128004 
0.514740 0.243851 0.985827 91.832406 3.516598 96.661537 7.501548 3.871179 -3.556648 3.526052 -4.525443 -8.680891 -2.900610 9.268915 -2.793215 0.000000 -0.000000 0.000000 -1.147013 -1.927707 -6.328883 -1.334392 2.340716 -0.887904 5.387503 -6.299998 -3.534965 0.000000 -0.000000 0.000000 -0.937312 0.793817 -3.693133 3.760572 -3.585189 2.449680 0.538861 1.328470 -7.543967 0.393174 -8.406927 7.176174 5.950062 -10.151560 -5.088878 -22.735514 2.213549 -2.755664 -62.415043 -3.588071 25.125301 5.617407 -6.826227 10.879948 -7.271257 -7.958426 10.374642 24.334857 3.920204 0.680527 53.806653 6.065571 17.482878 -1.904719 3.912374 1.938088 5.620379 2.224877 0.834052 
0.514507 0.243866 0.985832 91.840679 3.516261 96.659982 7.496952 3.870979 -3.570403 3.542267 -4.576643 -8.681344 -2.880042 9.267366 -2.782549 0.000000 -0.000000 0.000000 -1.142859 -1.909761 -6.339944 -1.347399 2.380332 -0.895807 5.398971 -6.324096 -3.555826 0.000000 -0.000000 0.000000 -0.936535 0.801298 -3.647338 3.760925 -3.587093 2.375672 0.546047 1.335449 -7.550230 0.362677 -8.414244 7.183331 5.921583 -10.132687 -5.030296 -22.685233 2.213134 -2.766904 -62.492535 -3.612095 25.183825 5.663536 -6.824840 11.065482 -7.534652 -7.701460 10.283788 24.301460 3.902496 0.674019 53.848463 6.059474 17.516945 -1.938054 3.875114 2.006662 5.774647 2.158242 0.796121 
0.514325 0.243904 0.985754 91.849946 3.528494 96.660107 7.512695 3.881618 -3.568993 3.549235 -4.606697 -8.720761 -2.872412 9.265342 -2.786182 0.000000 -0.000000 0.000000 -1.125797 -1.897771 -6.344070 -1.349262 2.364231 -0.911582 5.418285 -6.339442 -3.523309 0.000000 -0.000000 0.000000 -0.924025 0.786668 -3.627216 3.757061 -3.592010 2.328128 0.544833 1.359730 -7.521196 0.372091 -8.396012 7.179753 5.947305 -10.099815 -5.031950 -22.748288 2.199316 -2.782243 -62.419162 -3.616802 25.188061 5.671191 -6.818235 11.137225 -7.596199 -7.722879 10.299326 24.286595 3.909576 0.698542 53.870913 6.062482 17.510328 -1.943219 3.915038 2.007140 5.760148 2.162154 0.769582 
0.514274 0.243840 0.985765 91.865269 3.538495 96.629319 7.524354 3.880663 -3.517439 3.554734 -4.588380 -8.771477 -2.884229 9.275448 -2.750316 0.000000 -0.000000 0.000000 -1.108692 -1.909579 -6.312291 -1.355290 2.327225 -0.901901 5.385728 -6.355665 -3.520042 0.000000 -0.000000 0.000000 -0.902861 0.788709 -3.602522 3.734620 -3.592679 2.291640 0.537682 1.340045 -7.490140 0.373912 -8.380450 7.202810 5.966884 -10.089895 -5.016026 -22.711237 2.175074 -2.728082 -62.433363 -3.613210 25.166406 5.700183 -6.858860 11.164119 -7.603260 -7.737747 10.252214 24.258519 3.938494 0.726567 53.906966 6.034407 17.533829 -1.949559 3.987241 2.046197 5.753088 2.163932 0.662909 
0.514153 0.243794 0.985761 91.868873 3.549013 96.622749 7.537928 3.861127 -3.525321 3.561815 -4.575639 -8.755431 -2.893691 9.268837 -2.746401 0.000000 -0.000000 0.000000 -1.093342 -1.903030 -6.315238 -1.353225 2.346523 -0.903478 5.402568 -6.338318 -3.517048 0.000000 -0.000000 0.000000 -0.877382 0.811271 -3.632799 3.719488 -3.599246 2.269928 0.513839 1.322598 -7.443360 0.387351 -8.372871 7.248340 5.979286 -10.110762 -5.044394 -22.700469 2.135258 -2.719676 -62.423664 -3.633989 25.168693 5.697714 -6.809352 11.167467 -7.631351 -7.732337 10.261647 24.262584 3.944683 0.734090 53.921741 6.045758 17.553024 -1.979299 4.020883 2.074387 5.771747 2.137815 0.640871 
0.513947 0.243758 0.985772 91.865714 3.554437 96.625154 7.554741 3.861751 -3.551328 3.542715 -4.566251 -8.739895 -2.900867 9.256132 -2.745593 0.000000 -0.000000 0.000000 -1.081732 -1.910173 -6.350687 -1.354121 2.332589 -0.864087 5.387443 -6.342237 -3.548417 0.000000 -0.000000 0.000000 -0.856678 0.818877 -3.637923 3.707777 -3.608257 2.253367 0.498020 1.314199 -7.449925 0.393434 -8.387162 7.304695 5.987797 -10.118735 -5.096787 -22.680060 2.161464 -2.752471 -62.445647 -3.622722 25.193914 5.708792 -6.790014 11.194528 -7.653797 -7.731063 10.281692 24.257386 3.959960 0.745670 53.926428 6.085983 17.574303 -1.956558 4.003533 2.128505 5.790910 2.149265 0.653685 
0.513832 0.243728 0.985753 91.870814 3.545798 96.616795 7.551297 3.855264 -3.556371 3.528847 -4.543193 -8.725697 -2.893092 9.254657 -2.763419 0.000000 -0.000000 0.000000 -1.087475 -1.920963 -6.341265 -1.360515 2.330895 -0.880802 5.369436 -6.327916 -3.528131 0.000000 -0.000000 0.000000 -0.844237 0.831482 -3.624024 3.692239 -3.596522 2.208902 0.486099 1.293681 -7.455333 0.379030 -8.378754 7.376572 5.964239 -10.065205 -5.060682 -22.644673 2.181630 -2.762601 -62.493261 -3.615678 25.204613 5.695775 -6.684071 11.164253 -7.490670 -7.804433 10.232507 24.218528 3.945725 0.739637 53.965390 6.109501 17.596416 -1.922326 3.962510 2.156326 5.683637 2.189295 0.677954 
0.513634 0.243673 0.985710 91.858536 3.557366 96.598547 7.572187 3.865559 -3.571876 3.525932 -4.561311 -8.677509 -2.870408 9.235296 -2.788412 0.000000 -0.000000 0.000000 -1.069746 -1.913428 -6.350575 -1.347310 2.348138 -0.866575 5.382585 -6.300892 -3.527303 0.000000 -0.000000 0.000000 -0.845304 0.844107 -3.575669 3.709855 -3.582747 2.154558 0.486484 1.297446 -7.492838 0.339704 -8.449828 7.473536 5.978550 -10.039787 -5.062660 -22.673833 2.129427 -2.762889 -62.513475 -3.614650 25.270740 5.678792 -6.553130 11.089653 -7.045943 -7.915091 10.082625 24.201013 3.972959 0.755248 53.978798 6.084666 17.619259 -1.901280 3.974981 2.085422 5.402265 2.234322 0.594372 
0.513445 0.243648 0.985758 91.870346 3.550439 96.578226 7.578461 3.866363 -3.566848 3.498659 -4.557041 -8.687320 -2.886643 9.236199 -2.756657 0.000000 -0.000000 0.000000 -1.079439 -1.930769 -6.340987 -1.344246 2.336914 -0.867693 5.406153 -6.303861 -3.474767 0.000000 -0.000000 0.000000 -0.851640 0.812876 -3.608120 3.714853 -3.610566 2.170076 0.506632 1.344396 -7.473398 0.360940 -8.399364 7.457699 5.952117 -10.035790 -5.137175 -22.660054 2.094793 -2.770221 -62.551706 -3.576936 25.286211 5.757039 -6.699796 11.169495 -7.280377 -7.592691 10.243280 24.133657 4.030167 0.787353 53.997031 6.099367 17.590035 -1.889442 3.996280 2.093369 5.555518 2.176809 0.626416 
